<svg id="Layer_1" data-name="Layer 1" xmlns="http://www.w3.org/2000/svg" viewBox="0 0 512 512"><title>standby-glyph</title><path d="M358,72.2c-14.36-7.06-30.95,1.13-36.14,16.25s3,31.4,17.08,39.06c54.14,29.47,91,86.78,91,152.64C429.89,376,351.88,454,256,454S82.11,376,82.11,280.15c0-65.86,36.86-123.16,91-152.64,14.06-7.65,22.27-23.93,17.08-39.06S168.4,65.14,154,72.2C77.21,110,24.15,188.91,24.15,280.15,24.15,408,128.16,512,256,512S487.85,408,487.85,280.15C487.85,188.91,434.79,110,358,72.2Z" fill="#cb2026"/><path d="M256,202.87a29,29,0,0,0,29-29V29a29,29,0,0,0-58,0V173.89A29,29,0,0,0,256,202.87Z" fill="#cb2026"/></svg>
